<svg width="54" height="55" viewBox="0 0 54 55" fill="none" xmlns="http://www.w3.org/2000/svg">
<path d="M38.25 34.9751C37.9185 34.9751 37.6006 34.8434 37.3661 34.609C37.1317 34.3745 37 34.0566 37 33.7251V24.25C37 23.9185 37.1317 23.6005 37.3661 23.3661C37.6005 23.1317 37.9185 23 38.25 23C38.5815 23 38.8995 23.1317 39.1339 23.3661C39.3683 23.6005 39.5 23.9185 39.5 24.25V33.7251C39.5 34.0566 39.3683 34.3745 39.1339 34.609C38.8994 34.8434 38.5815 34.9751 38.25 34.9751Z" fill="#FFB400"/>
<path d="M45.75 34.975C45.4185 34.975 45.1006 34.8433 44.8661 34.6088C44.6317 34.3744 44.5 34.0565 44.5 33.725V24.2499C44.5 23.9184 44.6317 23.6004 44.8661 23.366C45.1005 23.1316 45.4185 22.9999 45.75 22.9999H48.3495L41.9652 13.88L35.4998 22.5C35.3008 22.7652 35.0047 22.9404 34.6765 22.9872C34.3483 23.034 34.015 22.9486 33.7499 22.7496C33.4847 22.5507 33.3095 22.2546 33.2627 21.9264C33.2158 21.5982 33.3013 21.2649 33.5003 20.9998L41.0003 10.9998C41.1177 10.8406 41.2717 10.712 41.4494 10.625C41.627 10.538 41.823 10.4951 42.0208 10.4999C42.2182 10.5033 42.4121 10.5534 42.5865 10.6461C42.7609 10.7388 42.9109 10.8715 43.0242 11.0333L51.7742 23.5333C51.9054 23.7206 51.9826 23.9403 51.9976 24.1685C52.0125 24.3967 51.9646 24.6246 51.8589 24.8274C51.7533 25.0302 51.5941 25.2002 51.3985 25.3188C51.203 25.4373 50.9787 25.5 50.75 25.4999H47V33.725C47 34.0565 46.8683 34.3744 46.6339 34.6088C46.3995 34.8433 46.0815 34.975 45.75 34.975Z" fill="#FFB400"/>
<path d="M30.75 28.025C30.4185 28.025 30.1005 27.8933 29.8661 27.6589C29.6317 27.4244 29.5 27.1065 29.5 26.775V14.25C29.5 13.9185 29.6317 13.6005 29.8661 13.3661C30.1005 13.1317 30.4185 13 30.75 13H33.3489L27 3.92954L20.6511 13H23.25C23.5815 13 23.8994 13.1317 24.1339 13.3661C24.3683 13.6005 24.5 13.9185 24.5 14.25V26.775C24.5 27.1065 24.3683 27.4244 24.1339 27.6589C23.8994 27.8933 23.5815 28.025 23.25 28.025C22.9185 28.025 22.6005 27.8933 22.3661 27.6589C22.1317 27.4244 22 27.1065 22 26.775V15.5H18.25C18.0213 15.5001 17.797 15.4374 17.6015 15.3189C17.4059 15.2003 17.2467 15.0303 17.1411 14.8275C17.0354 14.6247 16.9875 14.3968 17.0024 14.1686C17.0174 13.9404 17.0946 13.7207 17.2258 13.5334L25.9758 1.03343C26.097 0.877249 26.2522 0.750851 26.4298 0.663897C26.6073 0.576944 26.8023 0.531738 27 0.531738C27.1976 0.531738 27.3927 0.576944 27.5702 0.663897C27.7477 0.750851 27.903 0.877249 28.0242 1.03343L36.7742 13.5334C36.9053 13.7207 36.9826 13.9404 36.9975 14.1686C37.0125 14.3968 36.9645 14.6247 36.8589 14.8275C36.7533 15.0303 36.594 15.2003 36.3985 15.3189C36.203 15.4374 35.9787 15.5001 35.75 15.5H32V26.775C32 27.1065 31.8683 27.4244 31.6339 27.6589C31.3994 27.8933 31.0815 28.025 30.75 28.025Z" fill="#FFB400"/>
<path d="M8.24999 34.975C7.91847 34.975 7.60054 34.8433 7.36612 34.6088C7.1317 34.3744 7 34.0565 6.99999 33.725V25.4999H3.24998C3.02131 25.5 2.797 25.4373 2.60147 25.3188C2.40594 25.2002 2.24669 25.0302 2.14106 24.8274C2.03544 24.6246 1.98748 24.3967 2.00243 24.1685C2.01737 23.9403 2.09464 23.7206 2.22581 23.5333L10.9758 11.0333C11.0891 10.8715 11.239 10.7388 11.4135 10.6461C11.5879 10.5534 11.7817 10.5033 11.9792 10.4999C12.1772 10.4936 12.3737 10.5359 12.5516 10.623C12.7295 10.7102 12.8833 10.8395 12.9997 10.9997L20.4997 20.9997C20.6987 21.2649 20.7841 21.5982 20.7373 21.9264C20.6905 22.2545 20.5153 22.5507 20.2501 22.7496C19.985 22.9486 19.6516 23.034 19.3235 22.9872C18.9953 22.9404 18.6992 22.7651 18.5002 22.5L12.0348 13.88L5.6505 22.9999H8.24999C8.58151 22.9999 8.89945 23.1316 9.13387 23.366C9.36829 23.6004 9.49999 23.9184 9.49999 24.2499V33.725C9.49997 34.0565 9.36827 34.3744 9.13385 34.6088C8.89943 34.8433 8.5815 34.975 8.24999 34.975Z" fill="#FFB400"/>
<path d="M15.75 34.9751C15.4185 34.9751 15.1006 34.8434 14.8661 34.609C14.6317 34.3745 14.5 34.0566 14.5 33.7251V24.25C14.5 23.9185 14.6317 23.6005 14.8661 23.3661C15.1005 23.1317 15.4185 23 15.75 23C16.0815 23 16.3995 23.1317 16.6339 23.3661C16.8683 23.6005 17 23.9185 17 24.25V33.7251C17 34.0566 16.8683 34.3745 16.6339 34.609C16.3994 34.8434 16.0815 34.9751 15.75 34.9751Z" fill="#FFB400"/>
<path d="M42 54.2501C39.9106 54.257 37.861 53.6783 36.0837 52.5797C34.3063 51.481 32.8724 49.9064 31.9445 48.0343C31.7962 47.7377 31.7718 47.3944 31.8767 47.0799C31.9815 46.7653 32.207 46.5053 32.5036 46.357C32.8001 46.2087 33.1434 46.1843 33.458 46.2892C33.7725 46.394 34.0325 46.6195 34.1808 46.9161C34.9533 48.4533 36.1621 49.7285 37.656 50.5817C39.1499 51.435 40.8624 51.8285 42.5789 51.7129C44.2954 51.5972 45.9396 50.9777 47.3056 49.9318C48.6716 48.8859 49.6985 47.4601 50.2578 45.8332C50.8172 44.2062 50.8839 42.4504 50.4498 40.7857C50.0157 39.121 49.1 37.6213 47.8175 36.4747C46.5349 35.3281 44.9425 34.5854 43.2397 34.3397C41.5369 34.094 39.7995 34.3563 38.2451 35.0936C37.9452 35.2349 37.6014 35.2513 37.2893 35.1391C36.9773 35.0269 36.7226 34.7954 36.5813 34.4955C36.44 34.1955 36.4236 33.8517 36.5358 33.5397C36.648 33.2276 36.8795 32.973 37.1795 32.8316C38.7042 32.1089 40.3719 31.7384 42.0592 31.7475C43.7465 31.7566 45.4101 32.145 46.927 32.8841C48.4438 33.6232 49.775 34.6939 50.822 36.0171C51.869 37.3403 52.605 38.8821 52.9755 40.5282C53.3459 42.1743 53.3414 43.8827 52.9623 45.5269C52.5832 47.1711 51.8391 48.7089 50.7852 50.0266C49.7312 51.3442 48.3944 52.408 46.8737 53.1391C45.353 53.8702 43.6873 54.2499 42 54.2501Z" fill="#FFB400"/>
<path d="M12 54.25C10.3134 54.2489 8.64866 53.8685 7.12891 53.1371C5.60917 52.4057 4.27332 51.342 3.22021 50.0246C2.16709 48.7072 1.42366 47.1699 1.04491 45.5264C0.666156 43.8829 0.661784 42.1752 1.03211 40.5298C1.40244 38.8844 2.13799 37.3433 3.18435 36.0205C4.23071 34.6977 5.56109 33.6272 7.07707 32.888C8.59305 32.1488 10.2558 31.76 11.9424 31.7502C13.6289 31.7404 15.2961 32.11 16.8206 32.8315C17.1205 32.9729 17.352 33.2275 17.4642 33.5396C17.5764 33.8516 17.56 34.1954 17.4187 34.4954C17.2774 34.7953 17.0227 35.0268 16.7107 35.139C16.3986 35.2512 16.0548 35.2348 15.7549 35.0935C14.1985 34.3526 12.4579 34.0877 10.7515 34.332C9.04515 34.5764 7.44891 35.3192 6.16301 36.4672C4.87711 37.6152 3.95881 39.1173 3.52326 40.7852C3.08772 42.453 3.15433 44.2124 3.71474 45.8425C4.27515 47.4727 5.30441 48.901 6.67343 49.9485C8.04246 50.996 9.69029 51.616 11.4103 51.7306C13.1302 51.8453 14.8458 51.4495 16.3417 50.593C17.8376 49.7365 19.0474 48.4573 19.8192 46.916C19.9675 46.6194 20.2275 46.3939 20.542 46.2891C20.8566 46.1842 21.1999 46.2086 21.4964 46.3569C21.793 46.5052 22.0185 46.7652 22.1234 47.0798C22.2282 47.3943 22.2038 47.7376 22.0555 48.0342C21.1276 49.9063 19.6937 51.4809 17.9164 52.5796C16.139 53.6782 14.0894 54.2569 12 54.25Z" fill="#FFB400"/>
<path d="M27 50.5C24.5277 50.5 22.111 49.7669 20.0554 48.3934C17.9998 47.0199 16.3976 45.0676 15.4515 42.7836C14.5054 40.4995 14.2579 37.9861 14.7402 35.5614C15.2225 33.1366 16.413 30.9093 18.1612 29.1612C19.9093 27.413 22.1366 26.2225 24.5614 25.7402C26.9861 25.2579 29.4995 25.5054 31.7835 26.4515C34.0676 27.3976 36.0199 28.9998 37.3934 31.0554C38.7669 33.111 39.5 35.5277 39.5 38C39.4963 41.3141 38.1782 44.4914 35.8348 46.8348C33.4914 49.1782 30.3141 50.4963 27 50.5ZM27 28C25.0222 28 23.0888 28.5865 21.4443 29.6853C19.7998 30.7841 18.5181 32.3459 17.7612 34.1732C17.0043 36.0004 16.8063 38.0111 17.1922 39.9509C17.578 41.8907 18.5304 43.6725 19.9289 45.0711C21.3275 46.4696 23.1093 47.422 25.0491 47.8079C26.9889 48.1937 28.9996 47.9957 30.8268 47.2388C32.6541 46.4819 34.2159 45.2002 35.3147 43.5557C36.4135 41.9112 37 39.9778 37 38C36.997 35.3488 35.9424 32.807 34.0677 30.9323C32.193 29.0576 29.6512 28.003 27 28Z" fill="#FFB400"/>
<path d="M27 46.125C26.6685 46.125 26.3505 45.9933 26.1161 45.7589C25.8817 45.5245 25.75 45.2065 25.75 44.875V31.125C25.75 30.7935 25.8817 30.4755 26.1161 30.2411C26.3505 30.0067 26.6685 29.875 27 29.875C27.3315 29.875 27.6495 30.0067 27.8839 30.2411C28.1183 30.4755 28.25 30.7935 28.25 31.125V44.875C28.25 45.2065 28.1183 45.5245 27.8839 45.7589C27.6495 45.9933 27.3315 46.125 27 46.125Z" fill="#FFB400"/>
<path d="M27 39.25C25.9101 39.3133 24.8393 38.944 24.0201 38.2223C23.2009 37.5006 22.6996 36.4849 22.625 35.3957C22.6996 34.3065 23.201 33.2909 24.0202 32.5693C24.8393 31.8477 25.9102 31.4785 27 31.5419C28.0898 31.4785 29.1607 31.8477 29.9798 32.5693C30.799 33.2909 31.3004 34.3065 31.375 35.3957C31.375 35.7272 31.2433 36.0451 31.0089 36.2796C30.7745 36.514 30.4565 36.6457 30.125 36.6457C29.7935 36.6457 29.4755 36.514 29.2411 36.2796C29.0067 36.0451 28.875 35.7272 28.875 35.3957C28.875 34.662 28.0163 34.0419 27 34.0419C25.9837 34.0419 25.125 34.662 25.125 35.3957C25.125 36.1299 25.9837 36.75 27 36.75C27.3315 36.75 27.6495 36.8817 27.8839 37.1162C28.1183 37.3506 28.25 37.6685 28.25 38C28.25 38.3316 28.1183 38.6495 27.8839 38.8839C27.6495 39.1183 27.3315 39.25 27 39.25Z" fill="#FFB400"/>
<path d="M27 44.458C25.9102 44.5214 24.8393 44.1522 24.0202 43.4307C23.201 42.7091 22.6996 41.6934 22.625 40.6043C22.625 40.2727 22.7567 39.9548 22.9911 39.7204C23.2255 39.486 23.5435 39.3543 23.875 39.3543C24.2065 39.3543 24.5245 39.486 24.7589 39.7204C24.9933 39.9548 25.125 40.2727 25.125 40.6043C25.125 41.3379 25.9837 41.958 27 41.958C28.0163 41.958 28.875 41.3379 28.875 40.6043C28.875 39.87 28.0163 39.2499 27 39.2499C26.6685 39.2499 26.3505 39.1182 26.1161 38.8838C25.8817 38.6494 25.75 38.3314 25.75 37.9999C25.75 37.6684 25.8817 37.3504 26.1161 37.116C26.3505 36.8816 26.6685 36.7499 27 36.7499C28.0899 36.6866 29.1607 37.0559 29.9799 37.7776C30.7991 38.4993 31.3004 39.5151 31.375 40.6043C31.3004 41.6934 30.799 42.7091 29.9798 43.4307C29.1607 44.1522 28.0898 44.5214 27 44.458Z" fill="#FFB400"/>
</svg>
