<svg width="48" height="44" viewBox="0 0 48 44" fill="none" xmlns="http://www.w3.org/2000/svg">
<path d="M34.0684 13.3165C33.3884 13.2585 32.7744 13.7682 32.717 14.4554C32.6584 15.1433 33.1675 15.7488 33.856 15.808C40.2451 16.3542 45.25 21.8193 45.25 28.25C45.25 35.1421 39.6421 40.75 32.75 40.75C27.8147 40.75 23.3323 37.8374 21.3303 33.3293C21.0496 32.7007 20.3123 32.4101 19.6799 32.6946C19.05 32.9753 18.7656 33.7139 19.0452 34.345C21.4475 39.7539 26.8271 43.25 32.75 43.25C41.0215 43.25 47.75 36.5215 47.75 28.25C47.75 20.5327 41.7405 13.9732 34.0684 13.3165Z" fill="#FFB400"/>
<path d="M32.75 38.25C38.2639 38.25 42.75 33.7639 42.75 28.25C42.75 22.7361 38.2639 18.25 32.75 18.25C31.7969 18.25 30.8609 18.3869 29.9636 18.6461C30.1479 17.7082 30.25 16.7411 30.25 15.75C30.25 7.47913 23.5215 0.75 15.25 0.75C12.1824 0.75 9.24292 1.66553 6.74902 3.39831C6.1814 3.79199 6.04101 4.57141 6.4353 5.13781C6.82836 5.70421 7.60717 5.84583 8.1748 5.45154C10.2488 4.01111 12.6951 3.25 15.25 3.25C21.6051 3.25 26.857 8.0212 27.6385 14.168C26.8044 14.4703 25.9978 14.8456 25.227 15.2951C24.9867 9.99301 20.6103 5.75 15.25 5.75C9.73609 5.75 5.25 10.2361 5.25 15.75C5.25 21.2639 9.73609 25.75 15.25 25.75C16.2151 25.75 17.1458 25.6052 18.0293 25.3488C17.8602 26.2129 17.7768 27.0982 17.762 27.9963C16.9502 28.1625 16.1101 28.25 15.25 28.25C8.35791 28.25 2.75 22.6427 2.75 15.75C2.75 13.1945 3.51172 10.7482 4.95215 8.67603C5.34644 8.10901 5.20605 7.3302 4.63843 6.93591C4.07203 6.54224 3.29321 6.6814 2.89893 7.24902C1.16553 9.74231 0.25 12.6818 0.25 15.75C0.25 24.0215 6.97851 30.75 15.25 30.75C17.9932 30.75 20.5585 29.9976 22.7731 28.7066C23.0143 34.008 27.3902 38.25 32.75 38.25ZM32.75 25.75H34.625C35.3159 25.75 35.875 25.1909 35.875 24.5C35.875 23.8091 35.3159 23.25 34.625 23.25H34V20.8629C37.5414 21.4608 40.25 24.541 40.25 28.25C40.25 31.959 37.5414 35.0392 34 35.6371V32.9853C35.1019 32.5019 35.875 31.4037 35.875 30.125C35.875 28.4014 34.4736 27 32.75 27C32.4058 27 32.125 26.7192 32.125 26.375C32.125 26.0308 32.4058 25.75 32.75 25.75ZM31.5 20.8634V23.5147C30.3981 23.9981 29.625 25.0963 29.625 26.375C29.625 28.0986 31.0264 29.5 32.75 29.5C33.0942 29.5 33.375 29.7808 33.375 30.125C33.375 30.4692 33.0942 30.75 32.75 30.75H30.875C30.1841 30.75 29.625 31.3091 29.625 32C29.625 32.6909 30.1841 33.25 30.875 33.25H31.5V35.6371C27.9586 35.0392 25.25 31.959 25.25 28.25C25.25 27.7307 25.3131 27.2315 25.4132 26.7505C26.9134 25.3634 28.1338 23.682 28.9704 21.7886C29.7509 21.3285 30.6037 21.0131 31.5 20.8634ZM15.25 18.25H13.375C12.6841 18.25 12.125 18.8097 12.125 19.5C12.125 20.1903 12.6841 20.75 13.375 20.75H14V23.1371C10.4586 22.5392 7.75 19.459 7.75 15.75C7.75 12.041 10.4586 8.96082 14 8.36291V11.0147C12.8981 11.4983 12.125 12.5968 12.125 13.875C12.125 15.598 13.5264 17 15.25 17C15.5942 17 15.875 17.2801 15.875 17.625C15.875 17.9699 15.5942 18.25 15.25 18.25ZM16.5 23.1371V20.4853C17.6019 20.0017 18.375 18.9032 18.375 17.625C18.375 15.902 16.9736 14.5 15.25 14.5C14.9058 14.5 14.625 14.2198 14.625 13.875C14.625 13.5302 14.9058 13.25 15.25 13.25H17.125C17.8159 13.25 18.375 12.6903 18.375 12C18.375 11.3097 17.8159 10.75 17.125 10.75H16.5V8.36291C20.0414 8.96082 22.75 12.041 22.75 15.75C22.75 19.459 20.0414 22.5392 16.5 23.1371ZM21.0483 23.8819C22.8349 22.6041 24.1861 20.7588 24.8292 18.6059C25.7009 17.8852 26.6681 17.2884 27.6951 16.8324C27.2957 21.4599 24.3678 25.3691 20.3006 27.1746C20.3962 26.0366 20.6502 24.9353 21.0483 23.8819Z" fill="#FFB400"/>
</svg>
