<svg width="60" height="60" viewBox="0 0 60 60" fill="none" xmlns="http://www.w3.org/2000/svg">
<path d="M30.9375 34.6875H29.0625C26.9625 34.6875 25.3125 33.45 25.3125 31.875H27.1875C27.1875 32.2594 27.9188 32.8125 29.0625 32.8125H30.9375C32.0813 32.8125 32.8125 32.2594 32.8125 31.875C32.8125 31.4906 32.0813 30.9375 30.9375 30.9375H29.0625C26.9625 30.9375 25.3125 29.7 25.3125 28.125C25.3125 26.55 26.9625 25.3125 29.0625 25.3125H30.9375C33.0375 25.3125 34.6875 26.55 34.6875 28.125H32.8125C32.8125 27.7406 32.0813 27.1875 30.9375 27.1875H29.0625C27.9188 27.1875 27.1875 27.7406 27.1875 28.125C27.1875 28.5094 27.9188 29.0625 29.0625 29.0625H30.9375C33.0375 29.0625 34.6875 30.3 34.6875 31.875C34.6875 33.45 33.0375 34.6875 30.9375 34.6875Z" fill="#FFB400"/>
<path d="M29.0625 23.4375H30.9375V36.5625H29.0625V23.4375Z" fill="#FFB400"/>
<path d="M32.3438 41.25H27.6563C27.4077 41.25 27.1692 41.1512 26.9934 40.9754C26.8176 40.7996 26.7188 40.5611 26.7188 40.3125V39.15C25.604 38.7139 24.5779 38.0786 23.6907 37.275L22.5001 37.9594C22.2868 38.0795 22.035 38.1114 21.7985 38.0483C21.562 37.9853 21.3596 37.8322 21.2344 37.6219L18.8907 33.6469C18.8261 33.5395 18.7838 33.4204 18.7661 33.2964C18.7483 33.1724 18.7557 33.0461 18.7876 32.925C18.8207 32.8045 18.8775 32.6918 18.9548 32.5936C19.0321 32.4954 19.1282 32.4136 19.2376 32.3531L20.6251 31.5562C20.569 31.1367 20.5408 30.7139 20.5407 30.2906C20.5447 29.6895 20.6043 29.0901 20.7188 28.5L19.2094 27.6469C19.1001 27.5864 19.004 27.5046 18.9267 27.4064C18.8494 27.3082 18.7925 27.1955 18.7594 27.075C18.7275 26.9539 18.7202 26.8276 18.7379 26.7036C18.7557 26.5796 18.798 26.4605 18.8626 26.3531L21.2063 22.3781C21.2683 22.2702 21.3512 22.1758 21.4501 22.1002C21.5491 22.0247 21.662 21.9696 21.7824 21.9382C21.9029 21.9068 22.0283 21.8997 22.1516 21.9173C22.2748 21.9348 22.3932 21.9768 22.5001 22.0406L24.1032 22.9781C24.8913 22.3323 25.7774 21.8164 26.7282 21.45V19.6875C26.7282 19.4389 26.827 19.2004 27.0028 19.0246C27.1786 18.8488 27.417 18.75 27.6657 18.75H32.3532C32.6018 18.75 32.8403 18.8488 33.0161 19.0246C33.1919 19.2004 33.2907 19.4389 33.2907 19.6875V21.225C34.3584 21.5611 35.3604 22.0779 36.2532 22.7531L37.5001 22.0406C37.7133 21.9205 37.9651 21.8886 38.2016 21.9517C38.4381 22.0147 38.6405 22.1678 38.7657 22.3781L41.1094 26.3531C41.174 26.4605 41.2163 26.5796 41.2341 26.7036C41.2518 26.8276 41.2445 26.9539 41.2126 27.075C41.1795 27.1955 41.1226 27.3082 41.0453 27.4064C40.968 27.5046 40.8719 27.5864 40.7626 27.6469L39.7782 28.2C39.9363 28.8856 40.015 29.5871 40.0126 30.2906C40.0137 30.8211 39.9729 31.3509 39.8907 31.875L40.7719 32.3719C40.8813 32.4324 40.9774 32.5142 41.0547 32.6124C41.132 32.7106 41.1888 32.8232 41.2219 32.9437C41.2538 33.0649 41.2611 33.1911 41.2434 33.3151C41.2257 33.4391 41.1833 33.5583 41.1188 33.6656L38.7751 37.6406C38.6499 37.851 38.4475 38.004 38.211 38.0671C37.9745 38.1301 37.7227 38.0982 37.5094 37.9781L36.6657 37.5C35.6756 38.3469 34.5244 38.9847 33.2813 39.375V40.3125C33.2813 40.5611 33.1825 40.7996 33.0067 40.9754C32.8309 41.1512 32.5925 41.25 32.3438 41.25ZM28.5938 39.375H31.4063V38.6344C31.4006 38.4189 31.4692 38.2081 31.6007 38.0374C31.7321 37.8666 31.9184 37.7464 32.1282 37.6969C33.5446 37.3687 34.8426 36.6549 35.8782 35.6344C36.0246 35.4913 36.2139 35.4001 36.417 35.3747C36.6202 35.3493 36.826 35.3911 37.0032 35.4938L37.6313 35.8406L39.0188 33.4875L38.3626 33.1219C38.1859 33.0199 38.0473 32.8632 37.9678 32.6754C37.8883 32.4876 37.8722 32.279 37.9219 32.0813C38.0683 31.486 38.1438 30.8755 38.1469 30.2625C38.1501 29.4928 38.033 28.7273 37.8001 27.9938C37.7356 27.7892 37.7433 27.5687 37.8218 27.3691C37.9002 27.1695 38.0448 27.0028 38.2313 26.8969L39.0188 26.4562L37.6313 24.1031L36.6094 24.675C36.4402 24.7702 36.2456 24.8105 36.0525 24.7904C35.8593 24.7702 35.6772 24.6906 35.5313 24.5625C34.554 23.7155 33.3865 23.1173 32.1282 22.8188C31.9184 22.7693 31.7321 22.649 31.6007 22.4783C31.4692 22.3075 31.4006 22.0967 31.4063 21.8813V20.625H28.5938V22.0875C28.6027 22.2955 28.5421 22.5005 28.4216 22.6703C28.3011 22.84 28.1275 22.9648 27.9282 23.025C26.7818 23.3788 25.7305 23.9878 24.8532 24.8062C24.7081 24.945 24.5224 25.0336 24.3232 25.0589C24.1241 25.0842 23.9221 25.045 23.7469 24.9469L22.3688 24.1688L20.9813 26.5219L22.2751 27.2531C22.4574 27.3564 22.5998 27.5178 22.6797 27.7115C22.7596 27.9052 22.7722 28.1201 22.7157 28.3219C22.5305 28.9746 22.4358 29.6496 22.4344 30.3281C22.4356 30.8483 22.4922 31.3668 22.6032 31.875C22.6447 32.0707 22.6224 32.2745 22.5398 32.4567C22.4571 32.6389 22.3184 32.7898 22.1438 32.8875L20.9813 33.5437L22.3688 35.8969L23.3813 35.325C23.5644 35.2224 23.7766 35.1842 23.984 35.2165C24.1913 35.2488 24.3819 35.3497 24.5251 35.5031C25.4625 36.4853 26.6332 37.2141 27.9282 37.6219C28.1196 37.6799 28.2875 37.7976 28.4073 37.9579C28.527 38.1181 28.5924 38.3125 28.5938 38.5125V39.375Z" fill="#FFB400"/>
<path d="M11.25 20.625C9.3958 20.625 7.58324 20.0752 6.04153 19.045C4.49982 18.0149 3.29821 16.5507 2.58863 14.8377C1.87906 13.1246 1.69341 11.2396 2.05514 9.42103C2.41688 7.60246 3.30976 5.932 4.62088 4.62088C5.932 3.30976 7.60246 2.41688 9.42103 2.05514C11.2396 1.69341 13.1246 1.87906 14.8377 2.58863C16.5507 3.29821 18.0149 4.49982 19.045 6.04153C20.0752 7.58324 20.625 9.3958 20.625 11.25C20.625 13.7364 19.6373 16.121 17.8791 17.8791C16.121 19.6373 13.7364 20.625 11.25 20.625ZM11.25 3.75C9.76664 3.75 8.3166 4.18987 7.08323 5.01398C5.84986 5.83809 4.88857 7.00943 4.32091 8.37988C3.75325 9.75032 3.60473 11.2583 3.89411 12.7132C4.1835 14.168 4.89781 15.5044 5.9467 16.5533C6.9956 17.6022 8.33197 18.3165 9.78683 18.6059C11.2417 18.8953 12.7497 18.7468 14.1201 18.1791C15.4906 17.6114 16.6619 16.6501 17.486 15.4168C18.3101 14.1834 18.75 12.7334 18.75 11.25C18.75 9.26088 17.9598 7.35323 16.5533 5.9467C15.1468 4.54018 13.2391 3.75 11.25 3.75Z" fill="#FFB400"/>
<path d="M11.25 58.125C9.3958 58.125 7.58324 57.5752 6.04153 56.545C4.49982 55.5149 3.29821 54.0507 2.58863 52.3377C1.87906 50.6246 1.69341 48.7396 2.05514 46.921C2.41688 45.1025 3.30976 43.432 4.62088 42.1209C5.932 40.8098 7.60246 39.9169 9.42103 39.5551C11.2396 39.1934 13.1246 39.3791 14.8377 40.0886C16.5507 40.7982 18.0149 41.9998 19.045 43.5415C20.0752 45.0832 20.625 46.8958 20.625 48.75C20.625 51.2364 19.6373 53.621 17.8791 55.3791C16.121 57.1373 13.7364 58.125 11.25 58.125ZM11.25 41.25C9.76664 41.25 8.3166 41.6899 7.08323 42.514C5.84986 43.3381 4.88857 44.5094 4.32091 45.8799C3.75325 47.2503 3.60473 48.7583 3.89411 50.2132C4.1835 51.668 4.89781 53.0044 5.9467 54.0533C6.9956 55.1022 8.33197 55.8165 9.78683 56.1059C11.2417 56.3953 12.7497 56.2468 14.1201 55.6791C15.4906 55.1114 16.6619 54.1502 17.486 52.9168C18.3101 51.6834 18.75 50.2334 18.75 48.75C18.75 46.7609 17.9598 44.8532 16.5533 43.4467C15.1468 42.0402 13.2391 41.25 11.25 41.25Z" fill="#FFB400"/>
<path d="M48.75 20.625C46.8958 20.625 45.0832 20.0752 43.5415 19.045C41.9998 18.0149 40.7982 16.5507 40.0886 14.8377C39.3791 13.1246 39.1934 11.2396 39.5551 9.42103C39.9169 7.60246 40.8098 5.932 42.1209 4.62088C43.432 3.30976 45.1025 2.41688 46.921 2.05514C48.7396 1.69341 50.6246 1.87906 52.3377 2.58863C54.0507 3.29821 55.5149 4.49982 56.545 6.04153C57.5752 7.58324 58.125 9.3958 58.125 11.25C58.125 13.7364 57.1373 16.121 55.3791 17.8791C53.621 19.6373 51.2364 20.625 48.75 20.625ZM48.75 3.75C47.2666 3.75 45.8166 4.18987 44.5832 5.01398C43.3499 5.83809 42.3886 7.00943 41.8209 8.37988C41.2533 9.75032 41.1047 11.2583 41.3941 12.7132C41.6835 14.168 42.3978 15.5044 43.4467 16.5533C44.4956 17.6022 45.832 18.3165 47.2868 18.6059C48.7417 18.8953 50.2497 18.7468 51.6201 18.1791C52.9906 17.6114 54.1619 16.6501 54.986 15.4168C55.8101 14.1834 56.25 12.7334 56.25 11.25C56.25 9.26088 55.4598 7.35323 54.0533 5.9467C52.6468 4.54018 50.7391 3.75 48.75 3.75Z" fill="#FFB400"/>
<path d="M51.5625 54.375H45.9375C45.6889 54.375 45.4504 54.2762 45.2746 54.1004C45.0988 53.9246 45 53.6861 45 53.4375V50.625C45 49.6304 45.3951 48.6766 46.0984 47.9734C46.8016 47.2701 47.7554 46.875 48.75 46.875C49.7446 46.875 50.6984 47.2701 51.4016 47.9734C52.1049 48.6766 52.5 49.6304 52.5 50.625V53.4375C52.5 53.6861 52.4012 53.9246 52.2254 54.1004C52.0496 54.2762 51.8111 54.375 51.5625 54.375ZM46.875 52.5H50.625V50.625C50.625 50.1277 50.4275 49.6508 50.0758 49.2992C49.7242 48.9475 49.2473 48.75 48.75 48.75C48.2527 48.75 47.7758 48.9475 47.4242 49.2992C47.0725 49.6508 46.875 50.1277 46.875 50.625V52.5Z" fill="#FFB400"/>
<path d="M48.75 48.75C48.1937 48.75 47.65 48.585 47.1875 48.276C46.7249 47.967 46.3645 47.5277 46.1516 47.0138C45.9387 46.4999 45.883 45.9344 45.9915 45.3888C46.1001 44.8432 46.3679 44.3421 46.7613 43.9488C47.1546 43.5554 47.6557 43.2876 48.2013 43.179C48.7469 43.0705 49.3124 43.1262 49.8263 43.3391C50.3402 43.552 50.7795 43.9124 51.0885 44.375C51.3975 44.8375 51.5625 45.3812 51.5625 45.9375C51.5625 46.6834 51.2662 47.3988 50.7387 47.9262C50.2113 48.4537 49.4959 48.75 48.75 48.75ZM48.75 45C48.5646 45 48.3833 45.055 48.2292 45.158C48.075 45.261 47.9548 45.4074 47.8839 45.5787C47.8129 45.75 47.7943 45.9385 47.8305 46.1204C47.8667 46.3023 47.956 46.4693 48.0871 46.6004C48.2182 46.7315 48.3852 46.8208 48.5671 46.857C48.749 46.8932 48.9375 46.8746 49.1088 46.8036C49.2801 46.7327 49.4265 46.6125 49.5295 46.4583C49.6325 46.3042 49.6875 46.1229 49.6875 45.9375C49.6875 45.6889 49.5887 45.4504 49.4129 45.2746C49.2371 45.0988 48.9986 45 48.75 45Z" fill="#FFB400"/>
<path d="M48.75 58.125C46.8958 58.125 45.0832 57.5752 43.5415 56.545C41.9998 55.5149 40.7982 54.0507 40.0886 52.3377C39.3791 50.6246 39.1934 48.7396 39.5551 46.921C39.9169 45.1025 40.8098 43.432 42.1209 42.1209C43.432 40.8098 45.1025 39.9169 46.921 39.5551C48.7396 39.1934 50.6246 39.3791 52.3377 40.0886C54.0507 40.7982 55.5149 41.9998 56.545 43.5415C57.5752 45.0832 58.125 46.8958 58.125 48.75C58.125 51.2364 57.1373 53.621 55.3791 55.3791C53.621 57.1373 51.2364 58.125 48.75 58.125ZM48.75 41.25C47.2666 41.25 45.8166 41.6899 44.5832 42.514C43.3499 43.3381 42.3886 44.5094 41.8209 45.8799C41.2533 47.2503 41.1047 48.7583 41.3941 50.2132C41.6835 51.668 42.3978 53.0044 43.4467 54.0533C44.4956 55.1022 45.832 55.8165 47.2868 56.1059C48.7417 56.3953 50.2497 56.2468 51.6201 55.6791C52.9906 55.1114 54.1619 54.1502 54.986 52.9168C55.8101 51.6834 56.25 50.2334 56.25 48.75C56.25 46.7609 55.4598 44.8532 54.0533 43.4467C52.6468 42.0402 50.7391 41.25 48.75 41.25Z" fill="#FFB400"/>
<path d="M9.375 22.5H11.25V37.5H9.375V22.5Z" fill="#FFB400"/>
<path d="M22.5 50.625H37.5V52.5H22.5V50.625Z" fill="#FFB400"/>
<path d="M48.75 22.5H50.625V37.5H48.75V22.5Z" fill="#FFB400"/>
<path d="M22.5 9.375H37.5V11.25H22.5V9.375Z" fill="#FFB400"/>
<path d="M14.0625 54.375H8.4375C8.18886 54.375 7.9504 54.2762 7.77459 54.1004C7.59877 53.9246 7.5 53.6861 7.5 53.4375V50.625C7.5 49.6304 7.89509 48.6766 8.59835 47.9734C9.30161 47.2701 10.2554 46.875 11.25 46.875C12.2446 46.875 13.1984 47.2701 13.9017 47.9734C14.6049 48.6766 15 49.6304 15 50.625V53.4375C15 53.6861 14.9012 53.9246 14.7254 54.1004C14.5496 54.2762 14.3111 54.375 14.0625 54.375ZM9.375 52.5H13.125V50.625C13.125 50.1277 12.9275 49.6508 12.5758 49.2992C12.2242 48.9475 11.7473 48.75 11.25 48.75C10.7527 48.75 10.2758 48.9475 9.92418 49.2992C9.57254 49.6508 9.375 50.1277 9.375 50.625V52.5Z" fill="#FFB400"/>
<path d="M11.25 48.75C10.6937 48.75 10.15 48.585 9.68746 48.276C9.22495 47.967 8.86446 47.5277 8.65159 47.0138C8.43872 46.4999 8.38302 45.9344 8.49154 45.3888C8.60006 44.8432 8.86793 44.3421 9.26126 43.9488C9.6546 43.5554 10.1557 43.2876 10.7013 43.179C11.2469 43.0705 11.8124 43.1262 12.3263 43.3391C12.8402 43.552 13.2795 43.9124 13.5885 44.375C13.8976 44.8375 14.0625 45.3812 14.0625 45.9375C14.0625 46.6834 13.7662 47.3988 13.2387 47.9262C12.7113 48.4537 11.9959 48.75 11.25 48.75ZM11.25 45C11.0646 45 10.8833 45.055 10.7292 45.158C10.575 45.261 10.4548 45.4074 10.3839 45.5787C10.3129 45.75 10.2943 45.9385 10.3305 46.1204C10.3667 46.3023 10.456 46.4693 10.5871 46.6004C10.7182 46.7315 10.8852 46.8208 11.0671 46.857C11.249 46.8932 11.4375 46.8746 11.6088 46.8036C11.7801 46.7327 11.9265 46.6125 12.0295 46.4583C12.1325 46.3042 12.1875 46.1229 12.1875 45.9375C12.1875 45.6889 12.0887 45.4504 11.9129 45.2746C11.7371 45.0988 11.4986 45 11.25 45Z" fill="#FFB400"/>
<path d="M14.0625 16.875H8.4375C8.18886 16.875 7.9504 16.7762 7.77459 16.6004C7.59877 16.4246 7.5 16.1861 7.5 15.9375V13.125C7.5 12.1304 7.89509 11.1766 8.59835 10.4733C9.30161 9.77009 10.2554 9.375 11.25 9.375C12.2446 9.375 13.1984 9.77009 13.9017 10.4733C14.6049 11.1766 15 12.1304 15 13.125V15.9375C15 16.1861 14.9012 16.4246 14.7254 16.6004C14.5496 16.7762 14.3111 16.875 14.0625 16.875ZM9.375 15H13.125V13.125C13.125 12.6277 12.9275 12.1508 12.5758 11.7992C12.2242 11.4475 11.7473 11.25 11.25 11.25C10.7527 11.25 10.2758 11.4475 9.92418 11.7992C9.57254 12.1508 9.375 12.6277 9.375 13.125V15Z" fill="#FFB400"/>
<path d="M11.25 11.25C10.6937 11.25 10.15 11.0851 9.68746 10.776C9.22495 10.467 8.86446 10.0277 8.65159 9.5138C8.43872 8.99988 8.38302 8.43438 8.49154 7.88881C8.60006 7.34324 8.86793 6.8421 9.26126 6.44876C9.6546 6.05543 10.1557 5.78756 10.7013 5.67904C11.2469 5.57052 11.8124 5.62622 12.3263 5.83909C12.8402 6.05196 13.2795 6.41245 13.5885 6.87496C13.8976 7.33747 14.0625 7.88124 14.0625 8.4375C14.0625 9.18342 13.7662 9.89879 13.2387 10.4262C12.7113 10.9537 11.9959 11.25 11.25 11.25ZM11.25 7.5C11.0646 7.5 10.8833 7.55498 10.7292 7.658C10.575 7.76101 10.4548 7.90743 10.3839 8.07874C10.3129 8.25004 10.2943 8.43854 10.3305 8.6204C10.3667 8.80226 10.456 8.9693 10.5871 9.10041C10.7182 9.23153 10.8852 9.32081 11.0671 9.35699C11.249 9.39316 11.4375 9.3746 11.6088 9.30364C11.7801 9.23268 11.9265 9.11252 12.0295 8.95835C12.1325 8.80418 12.1875 8.62292 12.1875 8.4375C12.1875 8.18886 12.0887 7.9504 11.9129 7.77459C11.7371 7.59877 11.4986 7.5 11.25 7.5Z" fill="#FFB400"/>
<path d="M51.5625 16.875H45.9375C45.6889 16.875 45.4504 16.7762 45.2746 16.6004C45.0988 16.4246 45 16.1861 45 15.9375V13.125C45 12.1304 45.3951 11.1766 46.0984 10.4733C46.8016 9.77009 47.7554 9.375 48.75 9.375C49.7446 9.375 50.6984 9.77009 51.4016 10.4733C52.1049 11.1766 52.5 12.1304 52.5 13.125V15.9375C52.5 16.1861 52.4012 16.4246 52.2254 16.6004C52.0496 16.7762 51.8111 16.875 51.5625 16.875ZM46.875 15H50.625V13.125C50.625 12.6277 50.4275 12.1508 50.0758 11.7992C49.7242 11.4475 49.2473 11.25 48.75 11.25C48.2527 11.25 47.7758 11.4475 47.4242 11.7992C47.0725 12.1508 46.875 12.6277 46.875 13.125V15Z" fill="#FFB400"/>
<path d="M48.75 11.25C48.1937 11.25 47.65 11.0851 47.1875 10.776C46.7249 10.467 46.3645 10.0277 46.1516 9.5138C45.9387 8.99988 45.883 8.43438 45.9915 7.88881C46.1001 7.34324 46.3679 6.8421 46.7613 6.44876C47.1546 6.05543 47.6557 5.78756 48.2013 5.67904C48.7469 5.57052 49.3124 5.62622 49.8263 5.83909C50.3402 6.05196 50.7795 6.41245 51.0885 6.87496C51.3975 7.33747 51.5625 7.88124 51.5625 8.4375C51.5625 9.18342 51.2662 9.89879 50.7387 10.4262C50.2113 10.9537 49.4959 11.25 48.75 11.25ZM48.75 7.5C48.5646 7.5 48.3833 7.55498 48.2292 7.658C48.075 7.76101 47.9548 7.90743 47.8839 8.07874C47.8129 8.25004 47.7943 8.43854 47.8305 8.6204C47.8667 8.80226 47.956 8.9693 48.0871 9.10041C48.2182 9.23153 48.3852 9.32081 48.5671 9.35699C48.749 9.39316 48.9375 9.3746 49.1088 9.30364C49.2801 9.23268 49.4265 9.11252 49.5295 8.95835C49.6325 8.80418 49.6875 8.62292 49.6875 8.4375C49.6875 8.18886 49.5887 7.9504 49.4129 7.77459C49.2371 7.59877 48.9986 7.5 48.75 7.5Z" fill="#FFB400"/>
</svg>
