<svg width="60" height="60" viewBox="0 0 60 60" fill="none" xmlns="http://www.w3.org/2000/svg">
<path d="M28.1388 11.0694V15.8816C28.7511 15.8082 29.3755 15.7592 30 15.7592C30.649 15.7592 31.298 15.8082 31.9225 15.8939V11.0449C34.1143 10.249 35.6939 8.1551 35.6939 5.69388C35.6939 2.54694 33.147 0 30 0C26.8531 0 24.3062 2.54694 24.3062 5.69388C24.3062 8.19184 25.9102 10.298 28.1388 11.0694ZM30 3.63673C31.1388 3.63673 32.0572 4.5551 32.0572 5.69388C32.0572 6.83265 31.1388 7.75102 30 7.75102C28.8613 7.75102 27.9429 6.83265 27.9429 5.69388C27.9429 4.5551 28.8613 3.63673 30 3.63673Z" fill="#FFB400"/>
<path d="M28.6898 30.2815L26.7919 28.3836L24.8204 30.3427L26.7184 32.2407L28.6776 34.2121L30.649 32.2529L35.1796 27.7468L33.2204 25.7754L28.6898 30.2815Z" fill="#FFB400"/>
<path d="M54.3061 24.3062C51.8449 24.3062 49.7388 25.8735 48.9551 28.0776H44.1061C44.1919 28.7021 44.2408 29.3511 44.2408 30C44.2408 30.6245 44.1919 31.249 44.1184 31.8613H48.9306C49.7021 34.0898 51.8204 35.6939 54.3061 35.6939C57.4531 35.6939 60 33.147 60 30C60 26.8531 57.4531 24.3062 54.3061 24.3062ZM54.3061 32.0572C53.1674 32.0572 52.249 31.1388 52.249 30C52.249 28.8613 53.1674 27.9429 54.3061 27.9429C55.4449 27.9429 56.3633 28.8613 56.3633 30C56.3633 31.1388 55.4449 32.0572 54.3061 32.0572Z" fill="#FFB400"/>
<path d="M15.3061 17.9265L18.7102 21.3306C19.4816 20.3265 20.3878 19.4326 21.3919 18.6734L17.9633 15.2449C18.9551 13.1387 18.5878 10.5428 16.8367 8.79179C14.6082 6.56322 11.0082 6.56322 8.79185 8.79179C6.56328 11.0204 6.56328 14.6204 8.79185 16.8367C10.5551 18.6 13.1878 18.9551 15.3061 17.9265ZM11.351 11.351C12.1592 10.5428 13.4572 10.5428 14.2653 11.351C15.0735 12.1591 15.0735 13.4693 14.2653 14.2653C13.4572 15.0734 12.1592 15.0734 11.351 14.2653C10.5429 13.4571 10.5429 12.1591 11.351 11.351Z" fill="#FFB400"/>
<path d="M41.2898 21.3306L44.6939 17.9265C46.8123 18.9551 49.4449 18.6 51.2082 16.8367C53.4368 14.6081 53.4368 11.0081 51.2082 8.79179C48.9796 6.56322 45.3796 6.56322 43.1633 8.79179C41.4245 10.5306 41.0449 13.1265 42.049 15.2449L38.6204 18.6734C39.6123 19.4326 40.5184 20.3265 41.2898 21.3306ZM45.7347 11.3632C46.5429 10.5551 47.8408 10.5551 48.649 11.3632C49.4572 12.1714 49.4572 13.4693 48.649 14.2775C47.8408 15.0857 46.5429 15.0857 45.7347 14.2775C44.9265 13.4693 44.9265 12.1591 45.7347 11.3632Z" fill="#FFB400"/>
<path d="M31.9225 48.9552V44.1062C31.298 44.1919 30.649 44.2409 30 44.2409C29.3755 44.2409 28.7511 44.1919 28.1388 44.1184V48.9307C25.9102 49.7021 24.3062 51.8205 24.3062 54.3062C24.3062 57.4531 26.8531 60.0001 30 60.0001C33.147 60.0001 35.6939 57.4531 35.6939 54.3062C35.6939 51.8327 34.1143 49.7389 31.9225 48.9552ZM30 56.3633C28.8613 56.3633 27.9429 55.445 27.9429 54.3062C27.9429 53.1674 28.8613 52.2491 30 52.2491C31.1388 52.2491 32.0572 53.1674 32.0572 54.3062C32.0572 55.445 31.1388 56.3633 30 56.3633Z" fill="#FFB400"/>
<path d="M30 18.698C23.7673 18.698 18.6979 23.7674 18.6979 30C18.6979 36.2327 23.7673 41.3021 30 41.3021C36.2326 41.3021 41.302 36.2327 41.302 30C41.302 23.7674 36.2326 18.698 30 18.698ZM30 37.8735C25.6653 37.8735 22.1265 34.347 22.1265 30C22.1265 25.6653 25.653 22.1266 30 22.1266C34.3469 22.1266 37.8734 25.6531 37.8734 30C37.8734 34.3347 34.3347 37.8735 30 37.8735Z" fill="#FFB400"/>
<path d="M11.0694 31.8613H15.8816C15.7959 31.249 15.7592 30.6368 15.7592 30C15.7592 29.3511 15.8082 28.7021 15.8939 28.0776H11.0449C10.249 25.8857 8.1551 24.3062 5.69388 24.3062C2.54694 24.3062 0 26.8531 0 30C0 33.147 2.54694 35.6939 5.69388 35.6939C8.19184 35.6939 10.298 34.0898 11.0694 31.8613ZM5.69388 32.0572C4.5551 32.0572 3.63673 31.1388 3.63673 30C3.63673 28.8613 4.5551 27.9429 5.69388 27.9429C6.83265 27.9429 7.75102 28.8613 7.75102 30C7.75102 31.1388 6.83265 32.0572 5.69388 32.0572Z" fill="#FFB400"/>
<path d="M44.7551 42.0489L41.3266 38.6204C40.5551 39.6244 39.6612 40.5306 38.6572 41.302L42.0612 44.7061C41.0327 46.8244 41.4 49.4449 43.1633 51.2081C45.3919 53.4367 48.9919 53.4367 51.2082 51.2081C53.4368 48.9795 53.4368 45.3795 51.2082 43.1632C49.4694 41.4244 46.8735 41.0449 44.7551 42.0489ZM48.649 48.6489C47.8408 49.4571 46.5429 49.4571 45.7347 48.6489C44.9266 47.8408 44.9266 46.5306 45.7347 45.7346C46.5429 44.9265 47.8408 44.9265 48.649 45.7346C49.4572 46.5428 49.4572 47.8408 48.649 48.6489Z" fill="#FFB400"/>
<path d="M18.6735 38.6082L15.2449 42.0367C13.1388 41.0449 10.5429 41.4122 8.79185 43.151C6.56328 45.3796 6.56328 48.9796 8.79185 51.1959C11.0204 53.4245 14.6204 53.4245 16.8367 51.1959C18.6 49.4326 18.9551 46.8 17.9265 44.6816L21.3306 41.2775C20.3388 40.5184 19.4327 39.6122 18.6735 38.6082ZM14.2653 48.6367C13.4572 49.4449 12.1592 49.4449 11.351 48.6367C10.5429 47.8286 10.5429 46.5306 11.351 45.7224C12.1592 44.9143 13.4572 44.9143 14.2653 45.7224C15.0735 46.5306 15.0735 47.8408 14.2653 48.6367Z" fill="#FFB400"/>
</svg>
