<svg width="60" height="60" viewBox="0 0 60 60" fill="none" xmlns="http://www.w3.org/2000/svg">
<path d="M59.5898 58.125C59.5898 58.9339 58.9339 59.5898 58.125 59.5898H1.875C1.06605 59.5898 0.410156 58.9339 0.410156 58.125V1.875C0.410156 1.06605 1.06605 0.410156 1.875 0.410156C2.68395 0.410156 3.33984 1.06605 3.33984 1.875V56.6602H58.125C58.9339 56.6602 59.5898 57.3161 59.5898 58.125ZM8.37902 53.5547V42.4804C8.37902 41.6714 9.03492 41.0155 9.84387 41.0155H22.0965C22.9055 41.0155 23.5614 41.6714 23.5614 42.4804V53.5547C23.5614 54.3636 22.9055 55.0195 22.0965 55.0195H9.84387C9.03492 55.0195 8.37902 54.3636 8.37902 53.5547ZM11.3087 52.0898H20.6317V43.9452H11.3087V52.0898ZM40.1107 30.3514C40.9197 30.3514 41.5756 31.0073 41.5756 31.8163V53.5547C41.5756 54.3636 40.9197 55.0195 40.1107 55.0195H27.858C27.0491 55.0195 26.3932 54.3636 26.3932 53.5547V31.8163C26.3932 31.0073 27.0491 30.3514 27.858 30.3514H40.1107ZM38.6459 33.2811H29.3229V52.0898H38.6459V33.2811ZM59.5898 21.1522V53.5547C59.5898 54.3638 58.9339 55.0195 58.125 55.0195H45.8723C45.0634 55.0195 44.4075 54.3638 44.4075 53.5547V21.1522C44.4075 20.3433 45.0634 19.6874 45.8723 19.6874H58.125C58.9339 19.6874 59.5898 20.3433 59.5898 21.1522ZM56.6602 22.6171H47.3372V52.0898H56.6602V22.6171ZM52.0819 12.4841C51.0258 12.4549 49.8674 12.0422 49.6966 11.3099C49.513 10.522 48.725 10.0321 47.9374 10.2159C47.1495 10.3996 46.6597 11.1872 46.8434 11.975C47.2221 13.6 48.6125 14.7922 50.5337 15.2312V15.7523C50.5337 16.5613 51.1896 17.2172 51.9986 17.2172C52.8075 17.2172 53.4634 16.5613 53.4634 15.7523V15.3122C55.2676 15.0015 56.6326 14.0129 57.0353 12.6348C57.3078 11.702 57.2224 10.7934 56.7881 10.0075C56.2118 8.96414 55.0511 8.18813 53.3384 7.70121C53.013 7.60863 52.6718 7.52801 52.3417 7.44984C51.563 7.26562 50.6803 7.0568 50.2601 6.73078C50.0395 6.55969 49.9111 6.36891 49.8983 6.19348C49.887 6.03832 49.9631 5.86711 50.1125 5.71148C50.5643 5.24074 51.9118 4.95059 53.1227 5.28656C53.3646 5.35371 54.1628 5.61234 54.2788 6.12223C54.4581 6.91113 55.2434 7.40496 56.0319 7.22578C56.8207 7.04637 57.3149 6.26145 57.1355 5.47266C56.8097 4.03945 55.6325 2.9427 53.9061 2.46363C53.7633 2.42402 53.6155 2.38852 53.4634 2.3577V1.875C53.4634 1.06605 52.8075 0.410156 51.9986 0.410156C51.1896 0.410156 50.5337 1.06605 50.5337 1.875V2.36039C49.578 2.56207 48.6728 2.98078 47.9991 3.68262C47.267 4.44527 46.9037 5.41289 46.9764 6.40711C47.0505 7.42172 47.5788 8.35863 48.4639 9.04547C49.3868 9.7616 50.5983 10.0481 51.6671 10.301C51.9796 10.375 52.2748 10.4448 52.537 10.5193C53.5751 10.8145 54.0889 11.1804 54.2238 11.4244C54.2479 11.4679 54.2978 11.5583 54.2232 11.8132C54.1493 12.066 53.3491 12.5198 52.0818 12.4843L52.0819 12.4841ZM9.92977 22.1668C10.1782 22.1668 10.4302 22.1034 10.6608 21.9703L21.6505 15.6254L24.7959 21.0735C24.9901 21.4099 25.3102 21.6554 25.6854 21.756C26.0602 21.8563 26.4602 21.8039 26.7969 21.6096L38.2966 14.9702L37.9249 15.926C37.6317 16.68 38.0053 17.5289 38.7593 17.8221C39.5133 18.1155 40.3623 17.7418 40.6555 16.9877L42.537 12.1498C42.6978 11.7357 42.6623 11.2711 42.4403 10.8865C42.2182 10.5019 41.8335 10.2387 41.3945 10.1712L36.264 9.38156C35.465 9.25852 34.7164 9.80695 34.5934 10.6065C34.4704 11.4061 35.0188 12.1541 35.8184 12.2771L36.8318 12.4331L26.6006 18.34L23.4552 12.8919C23.261 12.5555 22.941 12.31 22.5657 12.2094C22.1907 12.1089 21.7908 12.1614 21.4542 12.3558L9.19594 19.4331C8.49527 19.8376 8.25527 20.7335 8.65981 21.4341C8.93109 21.904 9.42352 22.1668 9.92977 22.1668Z" fill="#FFB400"/>
</svg>
