<svg width="54" height="54" viewBox="0 0 54 54" fill="none" xmlns="http://www.w3.org/2000/svg">
<path d="M21.375 40.5938C14.1378 40.5938 8.25 34.706 8.25 27.4688C8.25 20.2315 14.1378 14.3438 21.375 14.3438C27.173 14.3438 32.3558 18.2302 33.9781 23.7938C34.1951 24.5391 33.7667 25.32 33.0214 25.5379C32.278 25.7494 31.4952 25.3282 31.2773 24.5812C30.0029 20.2095 25.9311 17.1562 21.375 17.1562C15.6887 17.1562 11.0625 21.7824 11.0625 27.4688C11.0625 33.1551 15.6887 37.7812 21.375 37.7812C24.2031 37.7812 26.8398 36.6597 28.799 34.6218C29.3373 34.0633 30.2281 34.045 30.7875 34.5833C31.3469 35.1216 31.3643 36.0115 30.826 36.5718C28.3312 39.1655 24.9753 40.5938 21.375 40.5938Z" fill="#FFB400"/>
<path d="M21.375 31.6645C18.1377 31.6645 15.5042 29.0314 15.5042 25.7941C15.5042 22.5568 18.1377 19.9229 21.375 19.9229C24.6123 19.9229 27.2458 22.5568 27.2458 25.7941C27.2458 29.0314 24.6123 31.6645 21.375 31.6645ZM21.375 22.7354C19.6886 22.7354 18.3167 24.1077 18.3167 25.7941C18.3167 27.4805 19.6886 28.852 21.375 28.852C23.0614 28.852 24.4333 27.4805 24.4333 25.7941C24.4333 24.1077 23.0614 22.7354 21.375 22.7354Z" fill="#FFB400"/>
<path d="M11.5784 35.2782C11.1815 35.2782 10.7869 35.1107 10.5086 34.7856C10.0041 34.1951 10.0742 33.3071 10.6647 32.8026C13.6433 30.2584 17.4473 28.8567 21.375 28.8567C24.6965 28.8567 27.8876 29.8326 30.6035 31.6783C31.2453 32.1151 31.4119 32.9894 30.9752 33.6321C30.5385 34.2748 29.6632 34.4405 29.0214 34.0038C26.7747 32.4767 24.1307 31.6692 21.375 31.6692C18.1161 31.6692 14.9612 32.831 12.4911 34.9413C12.2266 35.1674 11.9015 35.2782 11.5784 35.2782Z" fill="#FFB400"/>
<path d="M21.375 53.7188C21.2656 53.7188 21.1566 53.7059 21.0495 53.6803C8.82128 50.7707 0.28125 39.9575 0.28125 27.3845V10.4811C0.28125 9.86224 0.686372 9.31568 1.27871 9.13531L20.9662 3.15418C21.2326 3.07361 21.5174 3.07361 21.7838 3.15418L35.1436 7.21363C35.8861 7.43976 36.3054 8.22528 36.0802 8.96869C35.8541 9.71118 35.0676 10.1287 34.3251 9.90527L21.375 5.96942L3.09375 11.5239V27.3845C3.09375 38.5375 10.5942 48.145 21.3759 50.8651C24.1252 50.1747 26.6956 49.023 29.0206 47.4382C29.6624 46.9997 30.5367 47.1663 30.9743 47.8081C31.4119 48.4499 31.2462 49.3242 30.6044 49.7618C27.9032 51.6039 24.9066 52.9222 21.6986 53.6812C21.592 53.7059 21.4835 53.7188 21.375 53.7188Z" fill="#FFB400"/>
<path d="M41.0625 25.5937C40.2861 25.5937 39.6562 24.9639 39.6562 24.1875V19.1814C39.6562 18.405 40.2861 17.7751 41.0625 17.7751C41.8389 17.7751 42.4688 18.405 42.4688 19.1814V24.1875C42.4688 24.9639 41.8389 25.5937 41.0625 25.5937Z" fill="#FFB400"/>
<path d="M43.4062 20.9062C37.7199 20.9062 33.0938 16.2801 33.0938 10.5938C33.0938 4.90741 37.7199 0.28125 43.4062 0.28125C49.0926 0.28125 53.7188 4.90741 53.7188 10.5938C53.7188 16.2801 49.0926 20.9062 43.4062 20.9062ZM43.4062 3.09375C39.2708 3.09375 35.9062 6.45832 35.9062 10.5938C35.9062 14.7292 39.2708 18.0938 43.4062 18.0938C47.5417 18.0938 50.9062 14.7292 50.9062 10.5938C50.9062 6.45832 47.5417 3.09375 43.4062 3.09375Z" fill="#FFB400"/>
<path d="M42.2582 14.2466C42.2298 14.2466 42.2005 14.2457 42.1722 14.2439C41.7666 14.2192 41.3912 14.0196 41.144 13.6982L39.0108 10.9251C38.5366 10.3089 38.652 9.42637 39.2672 8.95304C39.8843 8.47879 40.7668 8.59323 41.2392 9.20938L42.3891 10.7044L45.686 7.36003C46.2325 6.80705 47.1215 6.79972 47.6745 7.34538C48.2275 7.89104 48.2339 8.78093 47.6891 9.3339L43.2598 13.8273C42.9943 14.0965 42.6336 14.2466 42.2582 14.2466Z" fill="#FFB400"/>
<path d="M49.5 53.7188H32.625C30.2986 53.7188 28.4062 51.8264 28.4062 49.5V32.625C28.4062 30.2986 30.2986 28.4062 32.625 28.4062H49.5C51.8264 28.4062 53.7188 30.2986 53.7188 32.625V49.5C53.7188 51.8264 51.8264 53.7188 49.5 53.7188ZM32.625 31.2188C31.8495 31.2188 31.2188 31.8495 31.2188 32.625V49.5C31.2188 50.2755 31.8495 50.9062 32.625 50.9062H49.5C50.2755 50.9062 50.9062 50.2755 50.9062 49.5V32.625C50.9062 31.8495 50.2755 31.2188 49.5 31.2188H32.625Z" fill="#FFB400"/>
<path d="M42 43.4062C41.2236 43.4062 40.5938 42.7764 40.5938 42V34.5C40.5938 33.7236 41.2236 33.0938 42 33.0938C42.7764 33.0938 43.4062 33.7236 43.4062 34.5V42C43.4062 42.7764 42.7764 43.4062 42 43.4062Z" fill="#FFB400"/>
<path d="M34.5 41.5312C33.7236 41.5312 33.0938 40.9014 33.0938 40.125V34.5C33.0938 33.7236 33.7236 33.0938 34.5 33.0938H47.625C48.4014 33.0938 49.0312 33.7236 49.0312 34.5V37.3125C49.0312 38.0889 48.4014 38.7188 47.625 38.7188C46.8486 38.7188 46.2188 38.0889 46.2188 37.3125V35.9062H35.9062V40.125C35.9062 40.9014 35.2764 41.5312 34.5 41.5312Z" fill="#FFB400"/>
<path d="M47.625 49.0312H42C41.2236 49.0312 40.5938 48.4014 40.5938 47.625C40.5938 46.8486 41.2236 46.2188 42 46.2188H46.2188V43.4062H39.1875C38.4111 43.4062 37.7812 42.7764 37.7812 42C37.7812 41.2236 38.4111 40.5938 39.1875 40.5938H47.625C48.4014 40.5938 49.0312 41.2236 49.0312 42V47.625C49.0312 48.4014 48.4014 49.0312 47.625 49.0312Z" fill="#FFB400"/>
<path d="M37.3125 49.0312H34.5C33.7236 49.0312 33.0938 48.4014 33.0938 47.625V44.8125C33.0938 44.0361 33.7236 43.4062 34.5 43.4062C35.2764 43.4062 35.9062 44.0361 35.9062 44.8125V46.2188H37.3125C38.0889 46.2188 38.7188 46.8486 38.7188 47.625C38.7188 48.4014 38.0889 49.0312 37.3125 49.0312Z" fill="#FFB400"/>
</svg>
